<svg width="354" height="482" viewBox="0 0 354 482" fill="none" xmlns="http://www.w3.org/2000/svg">
<g clip-path="url(#clip0_654_1345)">
<path d="M3.09602 401.025C2.36196 403.007 -5.84444 426.238 7.91917 443.906C12.1057 449.173 17.582 453.273 23.8191 455.81L241.632 481.991C245.867 481.418 251.707 479.928 256.732 475.639C263.574 469.805 265.494 461.687 266.275 458.182C269.028 445.804 285.897 369.427 308.403 263.742C323.508 192.054 338.611 120.365 353.713 48.6735C354.282 44.5207 354.23 39.1324 351.332 34.3876C345.543 29.5348 338.816 25.924 331.569 23.7801C222.763 -7.56339 39.2249 332.813 3.09602 401.025Z" fill="#002F21"/>
<path d="M247.844 431.471C246.846 434.928 244.169 443.821 236.245 449.858C223.761 459.371 206.299 455.603 199.071 454.288C161.286 447.415 77.542 444.127 22.6146 428.638C19.1937 427.67 11.7449 425.453 7.39228 418.871C2.31033 411.191 3.97608 401.527 5.36891 396.27C42.4107 269.854 79.4587 143.44 116.513 17.0293C118.355 11.4412 122.104 6.67613 127.105 3.56553C131.096 1.15144 135.69 -0.0847972 140.356 -6.9831e-05C229.29 10.2364 294.113 18.0159 313.989 19.9044C318.85 20.3741 332.529 21.5721 337.182 30.3475C339.323 34.3829 338.796 38.5827 338.571 40.2128C332.924 80.4116 294.207 242.837 294.207 242.837C291.087 256.028 259.48 390.962 247.844 431.471Z" fill="#0F9958"/>
<path d="M237.628 426.703C237.078 428.995 235.459 436.173 229.44 441.007C220.971 447.819 208.92 445.738 204.365 445.122L32.2703 422.042C30.5528 421.469 22.7981 418.688 18.2997 410.359C13.4248 401.33 16.0646 392.606 16.5539 391.098C74.6763 186.741 118.033 37.2908 122.63 25.8705C124.527 21.1237 127.638 16.9561 131.651 13.7832C136.243 10.5229 141.25 9.58339 144.864 9.32031L312.709 29.4361C317.245 29.967 322.737 31.4703 325.833 35.8016C326.603 37.6757 327.213 39.6119 327.654 41.5893C328.789 46.8642 328.789 52.3196 327.654 57.5945C303.322 181.874 267.15 303.555 237.628 426.703Z" fill="#C4FF80"/>
<path d="M126.367 162.171C125.6 156.849 125.167 147.754 129.548 138.363C130.449 136.425 131.511 134.566 132.724 132.806L271.804 149.506C272.083 161.691 269.505 173.773 264.276 184.786L126.367 162.171Z" fill="#002F21"/>
<path d="M50.4852 290.825C48.396 296.775 46.3083 302.743 44.2222 308.728L197.909 330.417C202.329 314.382 207.452 297.804 213.277 280.682C225.712 244.45 240.585 209.099 257.796 174.87L131.688 177.514L50.4852 290.825Z" fill="#FDCD00"/>
<path d="M42.3496 329.656L50.0761 309.555L197.9 330.417C197.015 336.769 196.132 343.119 195.25 349.467L42.3496 329.656Z" fill="#ED9622"/>
<path d="M91.654 316C91.9703 319.563 91.6111 323.154 90.5952 326.584L142.266 333.462C144.078 329.719 146.607 326.367 149.711 323.596" stroke="white" stroke-miterlimit="10"/>
<path d="M51.8921 268.59L39.9966 289.147C81.405 295.802 123.441 301.975 166.104 307.666C174.26 308.753 182.385 309.811 190.479 310.842C201.792 276.053 216.713 242.54 234.998 210.845C242.46 197.926 250.121 185.947 257.786 174.869L251.947 174.649L130.606 170.106L51.8921 268.59Z" fill="#F4B242"/>
<path d="M126.367 162.171C94.3236 193.739 66.3456 229.17 43.0791 267.646L192.611 287.033C207.676 246.162 229.732 208.211 257.796 174.869L126.367 162.171Z" fill="#F3DB0B"/>
<path d="M93.729 274.293C94.1865 275.722 94.4678 277.202 94.5666 278.699C94.6715 280.248 94.583 281.804 94.3031 283.331L146.638 290.077C147.729 288.458 148.924 286.911 150.214 285.445C151.254 284.266 152.353 283.14 153.508 282.072" stroke="white" stroke-miterlimit="10"/>
<path d="M96.5522 297.89C96.8901 299.008 97.1139 300.157 97.2204 301.319C97.416 303.546 97.191 305.79 96.5569 307.934L138.29 314.281C139.258 312.489 140.413 310.804 141.735 309.254C143.082 307.675 144.593 306.244 146.242 304.984" stroke="white" stroke-miterlimit="10"/>
<path d="M138.554 163.36C155.683 169.059 171.507 178.099 185.108 189.954C198.709 201.808 209.817 216.242 217.785 232.417C222.825 223.548 228.608 214.171 235.29 204.475C242.865 193.454 250.474 183.603 257.796 174.879L200.295 169.321L138.554 163.36Z" fill="#FDCD00"/>
<path d="M141.668 163.825C117.031 182.076 96.8515 205.657 82.6426 232.802C86.6821 235.879 89.8634 239.938 91.8819 244.593C93.9004 249.247 94.6886 254.341 94.1711 259.387L152.599 266.532C157.178 260.824 162.985 256.218 169.591 253.058C176.197 249.897 183.431 248.263 190.756 248.277C200.768 220.573 216.064 195.07 235.797 173.178" stroke="white" stroke-miterlimit="10"/>
<path d="M157.841 165.577C156.571 167.982 154.03 173.653 156.176 178.834C159.785 187.553 173.948 188.333 181.656 187.041C195.881 184.655 203.494 172.619 205.023 170.082" stroke="white" stroke-miterlimit="10"/>
<path d="M155.781 199.866C148.934 197.588 139.514 200.726 138.29 206.612C137.255 211.592 142.346 217.29 147.828 218.916C155.061 221.058 164.297 216.515 164.919 210.582C165.394 205.898 160.378 201.398 155.781 199.866Z" stroke="white" stroke-miterlimit="10"/>
</g>
<defs>
<clipPath id="clip0_654_1345">
<rect width="354" height="482" fill="white"/>
</clipPath>
</defs>
</svg>
