<svg width="377" height="431" viewBox="0 0 377 431" fill="none" xmlns="http://www.w3.org/2000/svg">
<path d="M333.076 165.6C335.957 159.288 357.115 111.406 334.5 78.1976C325.407 64.8576 310.868 56.2783 299.443 49.5416C285.453 41.2361 270.241 35.1922 254.37 31.6326C265.332 34.6692 275.396 40.3224 283.697 48.1075C300.784 64.5908 303.548 85.4346 305.164 97.5407C307.276 113.948 305.566 130.622 300.168 146.257C269.687 134.162 238.353 124.344 206.424 116.884C186.306 112.181 167.146 108.696 149.185 106.137C153.467 91.1163 160.504 77.025 169.935 64.5825C175.281 57.5539 181.418 49.4915 192.11 42.3796C195.557 40.0868 214.784 27.7389 239.814 29.1813C220.613 26.9385 187.355 26.7551 156.379 45.9398C148.826 50.6171 134.621 59.63 123.471 77.4639C116.041 89.4095 111.394 102.877 109.873 116.867C100.839 121.103 87.8487 128.806 77.6732 142.655C70.1207 152.944 68.1389 161.156 62.41 181.583C55.149 207.479 46.9053 233.092 39.5194 258.955C37.4626 266.142 35.0978 274.872 31.3341 287.053C25.2388 306.796 23.7399 309.214 23.6483 311.231C23.0072 324.572 80.7542 344.982 301.134 377.64C325.565 316.668 338.372 267.701 341.694 242.222C344.483 220.794 342.585 200.409 340.978 192.072C339.21 183.011 336.563 174.146 333.076 165.6ZM230.03 193.539C228.09 200.634 222.536 204.803 220.038 206.429C220.521 232.942 220.998 259.45 221.47 285.952L147.061 266.609L188.562 197.833C187.572 195.673 184.524 188.336 187.13 179.924C190.12 170.261 199.687 162.023 210.029 162.732C224.102 163.699 233.503 180.924 230.03 193.539Z" fill="#C4FF80"/>
<path d="M304.648 93.8222C295.677 86.9211 286.019 80.9644 275.828 76.0466C233.994 55.9031 193.509 58.5378 172.108 61.7394C179.302 51.9458 188.602 43.8963 199.321 38.1859C206.19 34.5507 226.175 24.3706 251.364 30.3903C256.21 31.5492 278.751 37.4939 293.356 59.6717C300.02 69.8792 303.912 81.6496 304.648 93.8222Z" fill="#0F9958"/>
<path d="M301.092 377.655C305.623 358.671 247.176 328.416 170.546 310.081C93.9172 291.745 28.1238 292.272 23.5928 311.256C19.0618 330.241 77.5089 360.495 154.138 378.831C230.767 397.166 296.561 396.64 301.092 377.655Z" fill="#0F9958"/>
</svg>
