<svg width="686" height="477" viewBox="0 0 686 477" fill="none" xmlns="http://www.w3.org/2000/svg">
<path d="M576.46 454.52C587.235 454.711 597.951 452.893 608.06 449.16C624.488 442.929 638.709 431.984 648.94 417.7C645.54 416.09 628.53 408.43 609.18 415.52C583 425.1 576.82 452.78 576.46 454.52Z" fill="#0F9958"/>
<path d="M35.9102 73.0001C38.6002 67.2701 51.4302 41.6201 81.9102 29.7701C99.5191 23.0567 118.85 22.3362 136.91 27.7201C135.7 36.4601 132.31 49.7201 122.06 60.9301C103.19 81.5601 68.7902 86.5801 35.9102 73.0001Z" fill="#0F9958"/>
<path d="M607.72 98.4199C610.172 98.4815 612.558 99.2261 614.61 100.57C617.327 102.414 619.282 105.182 620.11 108.36C616.28 144 612.46 180.49 607 217.48C600.82 259.527 594.643 301.58 588.47 343.64L485.29 347.29C480.322 345.651 475.988 342.506 472.89 338.29L518.43 105.22L607.72 98.4199Z" fill="#231F20"/>
<path d="M496.21 156.34C492.817 156.289 489.541 157.583 487.1 159.94C485.08 161.976 483.814 164.639 483.51 167.49C483.623 172.388 484.775 177.206 486.888 181.626C489.002 186.046 492.029 189.967 495.77 193.13L496.21 156.34Z" fill="#C4FF80"/>
<path d="M506.2 108C507.878 106.476 509.898 105.379 512.09 104.8L607.72 98.4199C609.943 99.5788 611.804 101.328 613.099 103.474C614.394 105.621 615.072 108.083 615.06 110.59L582.55 336.74L480 342.63C477.829 342.295 475.816 341.294 474.238 339.767C472.66 338.239 471.595 336.259 471.19 334.1L501.74 116.69C502.182 113.366 503.758 110.297 506.2 108Z" fill="#231F20"/>
<path d="M435 135.85L438.13 138.26C439.737 139.499 441.009 141.121 441.828 142.978C442.647 144.835 442.988 146.868 442.82 148.89C442.288 155.455 440.267 161.813 436.91 167.48C432.126 175.361 424.991 181.545 416.51 185.16C414.443 186.078 412.16 186.4 409.919 186.089C407.678 185.778 405.569 184.847 403.83 183.4L400.6 180.7L435 135.85Z" fill="#C4FF80" stroke="black" stroke-width="0.5" stroke-miterlimit="10"/>
<path d="M227.54 164L275.73 214.12C278.043 216.987 279.473 220.464 279.846 224.128C280.219 227.792 279.518 231.486 277.83 234.76L245.51 313C243.178 315.835 240.137 318.002 236.696 319.28C233.255 320.559 229.537 320.904 225.92 320.28L111.48 199.59L143.28 120.47L191.28 128.14L227.54 164Z" fill="white"/>
<path d="M188.64 136.08L266 215.49C268.361 218.383 269.925 221.842 270.539 225.525C271.153 229.208 270.795 232.988 269.5 236.49C258.42 262.59 247.343 288.693 236.27 314.8C235.698 316.718 234.428 318.352 232.71 319.38C231.43 320.066 229.988 320.395 228.537 320.334C227.086 320.272 225.678 319.822 224.46 319.03L99.25 187.65L134.65 111.24L178.14 126.07L188.64 136.08Z" stroke="black" stroke-width="0.5" stroke-miterlimit="10"/>
<path d="M249.84 151.19C248.84 148.92 246.91 148.85 242.65 146.19C240.17 144.65 236.77 142.54 234.57 139.19C232.57 136.08 232.99 134.1 231.98 130.52C230.6 125.6 227.83 122.4 222.98 117.32C214.18 108.12 206.32 100.92 202.19 97.0601C185.77 81.6801 187.58 81.0001 180 76.0001C173.36 71.6301 170.24 71.0001 160.94 64.5101C154.6 60.0801 151.17 57.6701 147.89 53.9901C144.61 50.3101 138.68 42.1901 137.18 27.5601C124.315 43.688 107.565 56.285 88.5001 64.1701C72.2089 70.8649 54.6565 73.9359 37.0601 73.1701C44.8667 88.2301 52.6734 103.297 60.4801 118.37C63.1801 141.09 65.8767 163.813 68.5701 186.54C70.6818 193.323 74.3966 199.497 79.4001 204.54C82.6986 207.839 86.5075 210.584 90.6801 212.67C92.4291 216.777 94.6115 220.686 97.1901 224.33C100.61 229.16 103.13 232.72 107.76 235.25C112.157 237.58 117.16 238.511 122.1 237.92C125.3 244.03 128.21 248.92 130.4 252.42C134.25 258.59 135.78 260.35 136.96 261.56C140.66 265.38 143.88 266.87 148.46 269.45C157.22 274.38 154.59 274.05 168.3 282.45C174.296 285.894 180.532 288.902 186.96 291.45C190.78 293.03 193.52 294 195.26 292.71C198.39 290.39 195.88 282.58 195.67 281.95C191.603 278.063 187.453 274.163 183.22 270.25C173.22 261.043 163.333 252.28 153.56 243.96C150.893 232.5 148.207 221.04 145.5 209.58C150.041 217.486 155.775 224.644 162.5 230.8C167.67 235.53 168.91 235.51 179.13 243.58C186.33 249.28 187.99 251.08 201.68 262.82C205.79 266.34 211.4 271.11 218.16 276.76C220.549 276.775 222.855 275.881 224.61 274.26C228.09 270.71 226.61 264.82 226.11 262.74C225.11 258.69 223.11 256.46 217.93 250.06C214.83 246.26 211.93 242.28 208.7 238.59C203.46 232.59 196.32 224.32 186.1 212.05C183.527 203.383 180.633 194.45 177.42 185.25C172.07 170.04 166.42 155.88 160.58 142.79C160.46 140.931 160.888 139.078 161.81 137.46C164.08 133.66 168.67 132.9 171.29 132.46C176.274 131.769 181.351 132.617 185.84 134.89C189.84 136.79 190.61 138.21 198.16 144.78C203.033 149.184 208.187 153.266 213.59 157C222.87 163.21 227.59 164.29 229.18 164.61C232.12 165.2 236.72 166.06 241.7 163.98C243.14 163.38 247.34 161.62 249.23 157.3C249.71 156.18 250.85 153.6 249.84 151.19Z" fill="#C4FF80"/>
<path d="M274.24 212.42L265.52 215.07" stroke="black" stroke-width="0.5" stroke-miterlimit="10"/>
<path d="M278.04 234.53L269.92 236" stroke="black" stroke-width="0.5" stroke-miterlimit="10"/>
<path d="M233.25 200.61L255 224.24C257.78 228.96 257.6 234.62 254.6 238.43C252.618 240.803 249.801 242.325 246.73 242.68L225.27 218.63C223.883 217.079 222.973 215.161 222.65 213.105C222.328 211.05 222.605 208.945 223.45 207.044C224.295 205.142 225.672 203.526 227.414 202.388C229.156 201.25 231.189 200.64 233.27 200.63L233.25 200.61Z" fill="#231F20"/>
<path d="M250.86 226.12C250.285 225.608 249.608 225.222 248.874 224.988C248.14 224.753 247.366 224.676 246.6 224.76C245.528 224.937 244.539 225.447 243.773 226.217C243.007 226.986 242.502 227.978 242.33 229.05C241.96 232.42 246.1 235.71 249.41 234.9C250.368 234.655 251.233 234.13 251.893 233.393C252.554 232.656 252.98 231.74 253.12 230.76C253.41 228.2 251.3 226.48 250.86 226.12Z" stroke="white" stroke-miterlimit="10"/>
<path d="M475.14 330.29L505.07 117.29C505.655 114.943 506.913 112.818 508.689 111.176C510.466 109.534 512.684 108.448 515.07 108.05L606.07 102.15C607.852 103.083 609.32 104.518 610.294 106.278C611.269 108.038 611.705 110.045 611.55 112.05L578.79 333.46L479.88 339.55C478.47 338.95 477.257 337.966 476.38 336.71C475.757 335.776 475.327 334.727 475.114 333.625C474.902 332.522 474.91 331.389 475.14 330.29Z" fill="white" stroke="white" stroke-miterlimit="10"/>
<path d="M612.56 147.83L608.83 177.11C608.9 179.11 610.41 180.39 611.7 180.26C612.159 180.165 612.584 179.951 612.935 179.641C613.286 179.33 613.55 178.934 613.7 178.49L617 148C616.974 147.662 616.88 147.332 616.723 147.032C616.566 146.731 616.349 146.466 616.087 146.252C615.824 146.038 615.52 145.879 615.194 145.786C614.868 145.693 614.526 145.667 614.19 145.71C613.739 145.862 613.343 146.144 613.052 146.522C612.762 146.899 612.591 147.355 612.56 147.83Z" fill="#FFB013"/>
<path d="M487.39 217.45L479.19 211.17C477.502 211.072 475.813 211.342 474.24 211.962C472.667 212.582 471.247 213.537 470.08 214.76C468.665 216.378 467.734 218.362 467.395 220.484C467.055 222.606 467.32 224.781 468.16 226.76L483.59 245.34L487.39 217.45Z" fill="#C4FF80"/>
<path d="M477.54 283.66L469.7 272.55C468.468 268.821 468.741 264.757 470.461 261.227C472.182 257.696 475.214 254.977 478.91 253.65L498.74 259.83C500.778 262.519 501.667 265.907 501.21 269.25C500.902 271.07 500.207 272.803 499.172 274.331C498.137 275.86 496.786 277.148 495.21 278.11L483.7 276.62L477.54 283.66Z" fill="#C4FF80"/>
<path d="M487.55 256.49L481.84 266.49L492.84 273.04C494.646 272.406 496.232 271.268 497.41 269.76C500.61 265.58 498.96 260.38 498.79 259.85L487.55 256.49Z" fill="#FFB013"/>
<path d="M477.24 289.39L470.12 288.73C468.58 289.576 467.224 290.72 466.131 292.096C465.038 293.472 464.23 295.051 463.753 296.742C463.277 298.433 463.141 300.203 463.355 301.946C463.57 303.69 464.129 305.374 465 306.9L473.57 318.64L478.28 310.78L482.71 312.08C484.985 311.378 486.971 309.957 488.37 308.03C491.65 303.39 489.66 297.95 489.47 297.46L477.24 289.39Z" fill="#C4FF80"/>
<path d="M502.62 346.56C505.226 348.494 507.578 350.748 509.62 353.27C514.04 358.76 515.48 363.68 517.15 368.17C519.89 375.52 523.29 381.11 530.15 392.28C536.52 402.73 539.7 407.95 543.41 410.9C550.41 416.41 555.64 416.44 562.12 424C564.362 426.723 566.288 429.693 567.86 432.85C571.631 439.69 574.546 446.968 576.54 454.52C580.108 447.942 584.949 442.14 590.78 437.45C597.78 431.93 599.78 433.18 615.22 424.13C623.62 419.19 625.45 417.37 630.43 416.24C636.64 414.96 643.086 415.466 649.02 417.7C644.597 411.233 641.011 404.23 638.35 396.86C635.697 389.933 634.047 382.663 633.45 375.27C632.9 367.57 634.01 364.55 635.9 351.13C637.61 339.01 639.29 327.13 639.15 313.58C639.07 304.95 638.26 298.98 636.65 287.04C634.59 271.79 633.23 262.04 628.99 250.23C626.267 242.603 622.783 235.269 618.59 228.34C618.78 228.08 623.28 221.98 620.43 215.2C619.08 212 616.03 208.46 612.05 207.89C604.05 206.74 597.38 218.42 596.75 219.56C592.75 226.87 593.28 233.34 595.09 255.29C595.48 260.04 596.24 269.29 597.23 281.52C590.975 289.27 585.58 297.676 581.14 306.59C575.184 318.542 570.98 331.289 568.66 344.44L502.62 346.56Z" fill="#C4FF80"/>
<path d="M610.12 207.56L609.56 222.67L618.29 228.58C619.777 226.767 620.778 224.606 621.2 222.3C621.33 221.58 622.45 214.64 617.47 210.3C615.393 208.595 612.806 207.631 610.12 207.56Z" fill="#FFB013"/>
<path d="M236.6 141.65C235.387 143.77 234.17 145.89 232.95 148.01C236.95 151.083 240.967 154.157 245 157.23C248.13 156.54 250.31 154.94 250.54 153.08C250.71 151.73 249.81 150.61 249.1 149.74C246.38 146.43 243.1 146.94 238.7 143.52C237.958 142.945 237.257 142.32 236.6 141.65Z" fill="#FFB013"/>
<path d="M434.51 135.45C428.89 131.78 416.31 140.16 409.16 148.84C400.16 159.79 395.44 176.51 400.62 180.7C403.31 182.89 408 181.11 412.4 179.44C424.86 174.71 436.4 162.44 437.4 147.81C437.65 144.2 438.07 137.79 434.51 135.45Z" fill="#C4FF80" stroke="black" stroke-width="0.5" stroke-miterlimit="10"/>
<path d="M376.11 132.09C376.69 131.28 379.7 127.22 384.33 127.09C386.969 127.133 389.492 128.185 391.38 130.03C399.74 137.57 395.79 158.38 387.38 171.4C384.96 175.14 380.79 181.4 374.72 181.52C372.811 181.519 370.94 180.994 369.31 180C371.57 164.033 373.837 148.063 376.11 132.09Z" fill="#C4FF80" stroke="black" stroke-width="0.5" stroke-miterlimit="10"/>
<path d="M360.23 135.23C360.23 134.94 360.8 129.77 364.76 128.07C366.594 127.388 368.619 127.434 370.42 128.2C375.68 130.2 377.77 136.47 378.87 139.95C383.41 154.26 378.19 168.27 372.44 176.01C370.74 178.29 367.68 182.32 364.61 181.68C362.85 181.32 361.73 179.57 361.12 178.33L360.23 135.23Z" fill="#C4FF80" stroke="black" stroke-width="0.5" stroke-miterlimit="10"/>
<path d="M346.18 145.1C345.468 141.974 345.741 138.705 346.96 135.74C347.68 134.09 348.57 132.03 350.54 131.27C353.96 129.96 358.03 133.62 358.61 134.15C362.45 137.62 363.2 142.25 364.3 149.68C365.237 155.458 365.294 161.345 364.47 167.14C363.54 172.84 362.47 179.41 358.7 180.38C355.86 181.1 352.8 178.38 351.44 176.93C349.693 166.31 347.94 155.7 346.18 145.1Z" fill="#C4FF80" stroke="black" stroke-width="0.5" stroke-miterlimit="10"/>
<path d="M333.79 144.24C333.79 144.24 333.05 163.31 345.19 178.24C346.59 179.96 347.94 181.34 349.19 181.05C352.07 180.36 352.31 170.58 351.84 164.77C350.47 147.77 340.37 131.46 336.28 132.62C334.21 133.17 334 138 333.79 144.24Z" fill="#C4FF80" stroke="black" stroke-width="0.5" stroke-miterlimit="10"/>
<path d="M317.91 137.45C316.5 138.28 317.86 142.99 319.09 147.13C321.312 154.628 324.567 161.779 328.76 168.38C332.6 174.45 338.04 183.05 340.15 182.16C342.26 181.27 339.79 170.44 338.33 165.5C336.034 157.575 332.022 150.252 326.58 144.05C325.22 142.52 319.75 136.36 317.91 137.45Z" fill="#C4FF80" stroke="black" stroke-width="0.5" stroke-miterlimit="10"/>
<path d="M301.6 141.82C300.12 142.82 305.37 153.28 309.16 159.62C317.87 174.23 330.22 186.24 331.95 184.95C333.68 183.66 325.9 170.95 322.78 166.05C314.6 153.2 303.38 140.61 301.6 141.82Z" fill="#C4FF80" stroke="black" stroke-width="0.5" stroke-miterlimit="10"/>
<path d="M283.2 148.22C282.51 148.93 292.26 159.62 299.55 166.96C309.6 177.08 322.1 188.05 322.87 187.28C323.64 186.51 313.8 175.28 304.46 166.11C295.12 156.94 283.9 147.5 283.2 148.22Z" fill="#C4FF80" stroke="black" stroke-width="0.5" stroke-miterlimit="10"/>
<path d="M271.3 151.94C269.3 153.5 275.69 164.49 276.73 166.3C286.63 183.4 302.73 197.61 305.45 195.5C307.87 193.59 299.55 178.15 290.14 167.09C283.21 158.94 273.29 150.37 271.3 151.94Z" fill="#C4FF80" stroke="black" stroke-width="0.5" stroke-miterlimit="10"/>
<path d="M258.52 160.35C257.21 161.4 258.29 164.6 260.45 171.01C263.26 179.34 267.23 190.64 278.11 198.91C280.11 200.42 288.17 206.56 290.99 204.37C294.07 201.96 289.5 190.57 285.27 183.37C276.68 168.7 261.68 157.83 258.52 160.35Z" fill="#C4FF80" stroke="black" stroke-width="0.5" stroke-miterlimit="10"/>
<path d="M247.19 167.47C247.713 167.074 248.309 166.786 248.945 166.625C249.58 166.463 250.242 166.431 250.89 166.53C257.57 167.01 265.4 176.63 266.21 177.64C270.207 182.713 273.37 188.391 275.58 194.46C278.15 200.83 278.52 204.2 278.33 207.12C278.174 209.505 277.64 211.851 276.75 214.07C271.56 209.31 267.31 205.07 264.09 201.76C264.09 201.76 253.35 190.67 247.66 179.42C246.551 177.042 245.967 174.453 245.95 171.83C245.93 168.9 246.7 167.91 247.19 167.47Z" fill="#C4FF80" stroke="black" stroke-width="0.5" stroke-miterlimit="10"/>
<path d="M239.11 174.53C241.199 174.361 243.302 174.564 245.32 175.13C249.035 176.298 252.336 178.509 254.83 181.5C261.51 188.61 264.04 197.76 264.96 201.87L239.11 174.53Z" fill="#C4FF80" stroke="black" stroke-width="0.5" stroke-miterlimit="10"/>
<path d="M205.61 266.4L211.96 259.84C216.71 259.84 220.87 261.84 222.61 265.27C223.393 266.812 223.67 268.562 223.4 270.27C222.69 274.58 218.61 276.58 218.14 276.8L205.61 266.4Z" fill="#FFB013"/>
<path d="M193.51 293.2C194.36 292.2 192.37 288.73 189.83 286.7C188.83 285.93 185.53 283.27 182.61 284.7C181.936 285.086 181.347 285.605 180.88 286.226C180.412 286.846 180.076 287.555 179.89 288.31C181.08 288.94 182.89 289.85 185.17 290.83C189.9 292.85 192.76 294.08 193.51 293.2Z" fill="#FFB013"/>
<path d="M482.25 292.47L476.87 300.6L483.4 305.86C485.181 305.308 486.731 304.188 487.815 302.671C488.899 301.154 489.455 299.323 489.4 297.46L482.25 292.47Z" fill="#FFB013"/>
<path d="M516.56 196.73C527.98 182.21 544.87 175.79 558.56 180.38C564.678 182.574 569.974 186.596 573.73 191.9" stroke="black" stroke-width="0.56" stroke-miterlimit="10"/>
<path d="M508 242.3C509.68 246.47 514 255.3 523.09 259.3C537.09 265.45 557.25 258.01 569.42 239" stroke="black" stroke-width="0.5" stroke-miterlimit="10" stroke-linecap="round"/>
<path d="M543.76 181.34L554.08 181.15C552.4 183.24 550.72 185.34 549.03 187.43L543.76 181.34Z" fill="#231F20"/>
<path d="M545.88 168H555.69L550.84 173.82C549.19 171.89 547.53 170 545.88 168Z" fill="#231F20"/>
<path d="M547.67 154.19L558.12 153.47L553.12 159.76L547.67 154.19Z" fill="#231F20"/>
</svg>
